<svg width="24" height="24" viewBox="0 0 24 24" fill="none" xmlns="http://www.w3.org/2000/svg">
<path d="M12 21.375C11.8069 21.374 11.617 21.3258 11.4469 21.2344C11.0438 21 1.5 15.5812 1.5 8.625C1.49871 7.40573 1.86891 6.215 2.5613 5.21139C3.25369 4.20779 4.2354 3.43895 5.3757 3.00726C6.516 2.57558 7.76075 2.50155 8.94417 2.79502C10.1276 3.08849 11.1935 3.73554 12 4.65C12.8065 3.73554 13.8724 3.08849 15.0558 2.79502C16.2393 2.50155 17.484 2.57558 18.6243 3.00726C19.7646 3.43895 20.7463 4.20779 21.4387 5.21139C22.1311 6.215 22.5013 7.40573 22.5 8.625C22.5 15.5812 12.9563 21 12.5531 21.2344C12.383 21.3258 12.1931 21.374 12 21.375ZM7.5 4.875C6.50544 4.875 5.55161 5.27009 4.84835 5.97335C4.14509 6.67661 3.75 7.63044 3.75 8.625C3.75 13.425 10.0688 17.7375 12 18.9375C13.9313 17.7375 20.25 13.425 20.25 8.625C20.2491 7.75889 19.9485 6.91979 19.3992 6.2502C18.8498 5.5806 18.0856 5.12181 17.2364 4.95174C16.3871 4.78167 15.5052 4.91081 14.7403 5.31722C13.9755 5.72364 13.3749 6.38227 13.0406 7.18125C12.9559 7.38759 12.8117 7.56407 12.6264 7.68827C12.4411 7.81247 12.2231 7.87879 12 7.87879C11.7769 7.87879 11.5589 7.81247 11.3736 7.68827C11.1883 7.56407 11.0441 7.38759 10.9594 7.18125C10.6756 6.49773 10.1954 5.91376 9.57962 5.50323C8.96383 5.09271 8.24009 4.87407 7.5 4.875Z" fill="white"/>
</svg>
