<svg width="512" height="512" viewBox="0 0 512 512" fill="none" xmlns="http://www.w3.org/2000/svg">
<path d="M48 176H464M35.42 188.21L243.17 457.67C244.68 459.638 246.622 461.233 248.847 462.33C251.072 463.427 253.519 463.998 256 463.998C258.481 463.998 260.928 463.427 263.153 462.33C265.378 461.233 267.32 459.638 268.83 457.67L476.58 188.21C478.623 185.55 479.808 182.332 479.977 178.983C480.147 175.634 479.293 172.312 477.53 169.46L407.06 55.71C405.609 53.356 403.581 51.4119 401.167 50.0625C398.754 48.7131 396.035 48.0031 393.27 48H118.73C115.965 48.0031 113.246 48.7131 110.833 50.0625C108.419 51.4119 106.391 53.356 104.94 55.71L34.47 169.46C32.7065 172.312 31.8529 175.634 32.0226 178.983C32.1923 182.332 33.3773 185.55 35.42 188.21V188.21Z" stroke="white" stroke-width="32" stroke-linecap="round" stroke-linejoin="round"/>
<path d="M400 64L352 176L256 48M112 64L160 176L256 48M256 448L160 176M256 448L352 176" stroke="white" stroke-width="32" stroke-linecap="round" stroke-linejoin="round"/>
</svg>
