<svg width="24" height="24" viewBox="0 0 24 24" fill="none" xmlns="http://www.w3.org/2000/svg">
<path d="M2.25005 8.25H21.7501M1.66037 8.82234L11.3986 21.4533C11.4694 21.5455 11.5605 21.6203 11.6648 21.6717C11.769 21.7232 11.8838 21.7499 12.0001 21.7499C12.1163 21.7499 12.2311 21.7232 12.3353 21.6717C12.4396 21.6203 12.5307 21.5455 12.6015 21.4533L22.3397 8.82234C22.4355 8.69768 22.491 8.54682 22.499 8.38983C22.5069 8.23284 22.4669 8.07714 22.3843 7.94344L19.081 2.61141C19.013 2.50106 18.9179 2.40993 18.8048 2.34668C18.6916 2.28343 18.5642 2.25015 18.4346 2.25H5.56552C5.4359 2.25015 5.30848 2.28343 5.19534 2.34668C5.08221 2.40993 4.98712 2.50106 4.91912 2.61141L1.61583 7.94344C1.53317 8.07714 1.49316 8.23284 1.50111 8.38983C1.50907 8.54682 1.56461 8.69768 1.66037 8.82234V8.82234Z" stroke="white" stroke-width="2" stroke-linecap="round" stroke-linejoin="round"/>
<path d="M18.75 3L16.5 8.25M16.5 8.25L12 2.25L7.5 8.25M16.5 8.25L12 21L7.5 8.25M5.25 3L7.5 8.25" stroke="white" stroke-width="2" stroke-linecap="round" stroke-linejoin="round"/>
</svg>
