<svg width="192" height="192" viewBox="0 0 192 192" fill="none" xmlns="http://www.w3.org/2000/svg">
<path d="M18.0001 66H174M13.2826 70.5788L91.1888 171.626C91.755 172.364 92.4834 172.962 93.3177 173.374C94.152 173.785 95.0698 173.999 96.0001 173.999C96.9303 173.999 97.8481 173.785 98.6824 173.374C99.5167 172.962 100.245 172.364 100.811 171.626L178.718 70.5788C179.484 69.5814 179.928 68.3746 179.992 67.1186C180.055 65.8627 179.735 64.6171 179.074 63.5475L152.648 20.8912C152.104 20.0085 151.343 19.2795 150.438 18.7734C149.533 18.2674 148.513 18.0012 147.476 18H44.5238C43.4869 18.0012 42.4674 18.2674 41.5624 18.7734C40.6573 19.2795 39.8966 20.0085 39.3526 20.8912L12.9263 63.5475C12.265 64.6171 11.9449 65.8627 12.0085 67.1186C12.0722 68.3746 12.5165 69.5814 13.2826 70.5788V70.5788Z" stroke="white" stroke-width="16" stroke-linecap="round" stroke-linejoin="round"/>
<path d="M150 24L132 66M132 66L96 18L60 66M132 66L96 168L60 66M42 24L60 66" stroke="white" stroke-width="16" stroke-linecap="round" stroke-linejoin="round"/>
</svg>
