<svg width="24" height="24" viewBox="0 0 24 24" fill="none" xmlns="http://www.w3.org/2000/svg">
<path d="M21.6751 14.6649L20.1399 13.3523C20.2126 12.907 20.2501 12.4523 20.2501 11.9977C20.2501 11.543 20.2126 11.0883 20.1399 10.643L21.6751 9.33047C21.7908 9.23135 21.8737 9.09932 21.9127 8.95196C21.9516 8.80459 21.9447 8.64886 21.893 8.50547L21.8719 8.44454C21.4493 7.26335 20.8165 6.16837 20.004 5.21251L19.9618 5.16329C19.8632 5.04739 19.7318 4.96408 19.585 4.92434C19.4381 4.88459 19.2827 4.89027 19.1391 4.94063L17.2336 5.61797C16.5305 5.04141 15.7454 4.58673 14.8969 4.26798L14.529 2.27579C14.5012 2.12589 14.4285 1.98798 14.3205 1.88039C14.2125 1.7728 14.0743 1.70062 13.9243 1.67344L13.861 1.66172C12.6399 1.44141 11.3555 1.44141 10.1344 1.66172L10.0711 1.67344C9.92114 1.70062 9.78295 1.7728 9.67494 1.88039C9.56694 1.98798 9.49422 2.12589 9.46646 2.27579L9.09615 4.27735C8.25448 4.59617 7.47068 5.05061 6.77584 5.62266L4.8563 4.94063C4.71279 4.88987 4.55722 4.88398 4.41028 4.92376C4.26333 4.96353 4.13197 5.04707 4.03365 5.16329L3.99146 5.21251C3.17993 6.16905 2.54718 7.26384 2.12349 8.44454L2.1024 8.50547C1.99693 8.79844 2.08365 9.12657 2.32037 9.33047L3.87427 10.657C3.80162 11.0977 3.76646 11.5477 3.76646 11.9953C3.76646 12.4453 3.80162 12.8953 3.87427 13.3336L2.32037 14.6602C2.20457 14.7593 2.1217 14.8913 2.08277 15.0387C2.04383 15.1861 2.05068 15.3418 2.1024 15.4852L2.12349 15.5461C2.54771 16.7274 3.17583 17.8172 3.99146 18.7781L4.03365 18.8274C4.13221 18.9432 4.26358 19.0266 4.41043 19.0663C4.55729 19.106 4.71274 19.1004 4.8563 19.05L6.77584 18.368C7.47427 18.9422 8.25474 19.3969 9.09615 19.7133L9.46646 21.7149C9.49422 21.8648 9.56694 22.0027 9.67494 22.1102C9.78295 22.2178 9.92114 22.29 10.0711 22.3172L10.1344 22.3289C11.3667 22.5504 12.6287 22.5504 13.861 22.3289L13.9243 22.3172C14.0743 22.29 14.2125 22.2178 14.3205 22.1102C14.4285 22.0027 14.5012 21.8648 14.529 21.7149L14.8969 19.7227C15.745 19.4047 16.5346 18.9486 17.2336 18.3727L19.1391 19.05C19.2826 19.1008 19.4382 19.1067 19.5851 19.0669C19.7321 19.0271 19.8634 18.9436 19.9618 18.8274L20.004 18.7781C20.8196 17.8149 21.4477 16.7274 21.8719 15.5461L21.893 15.4852C21.9985 15.1969 21.9118 14.8688 21.6751 14.6649V14.6649ZM18.4758 10.9195C18.5344 11.2734 18.5649 11.6367 18.5649 12C18.5649 12.3633 18.5344 12.7266 18.4758 13.0805L18.3211 14.0203L20.0719 15.518C19.8065 16.1294 19.4715 16.7083 19.0735 17.243L16.8985 16.4719L16.1626 17.0766C15.6024 17.5359 14.979 17.8969 14.304 18.15L13.411 18.4852L12.9915 20.7586C12.3295 20.8336 11.6612 20.8336 10.9993 20.7586L10.5797 18.4805L9.6938 18.1406C9.02583 17.8875 8.40474 17.5266 7.84927 17.0695L7.11334 16.4625L4.92427 17.2406C4.52583 16.7039 4.19302 16.125 3.92583 15.5156L5.69537 14.0039L5.54302 13.0664C5.48677 12.7172 5.4563 12.3563 5.4563 12C5.4563 11.6414 5.48443 11.2828 5.54302 10.9336L5.69537 9.9961L3.92583 8.48438C4.19068 7.87266 4.52583 7.2961 4.92427 6.75938L7.11334 7.53751L7.84927 6.93047C8.40474 6.47344 9.02583 6.11251 9.6938 5.85938L10.5821 5.52422L11.0016 3.2461C11.6602 3.1711 12.3329 3.1711 12.9938 3.2461L13.4133 5.51954L14.3063 5.85469C14.979 6.10782 15.6047 6.46876 16.1649 6.92813L16.9008 7.53282L19.0758 6.76172C19.4743 7.29844 19.8071 7.87735 20.0743 8.48672L18.3235 9.98438L18.4758 10.9195ZM12.0001 7.64063C9.72193 7.64063 7.87505 9.48751 7.87505 11.7656C7.87505 14.0438 9.72193 15.8906 12.0001 15.8906C14.2782 15.8906 16.1251 14.0438 16.1251 11.7656C16.1251 9.48751 14.2782 7.64063 12.0001 7.64063ZM13.8563 13.6219C13.6128 13.866 13.3235 14.0597 13.0049 14.1916C12.6864 14.3235 12.3449 14.3912 12.0001 14.3906C11.2993 14.3906 10.6407 14.1164 10.1438 13.6219C9.89964 13.3784 9.70602 13.0891 9.57409 12.7705C9.44216 12.4519 9.37452 12.1104 9.37505 11.7656C9.37505 11.0648 9.64927 10.4063 10.1438 9.90938C10.6407 9.41251 11.2993 9.14063 12.0001 9.14063C12.7008 9.14063 13.3594 9.41251 13.8563 9.90938C14.1005 10.1528 14.2941 10.4422 14.426 10.7608C14.5579 11.0793 14.6256 11.4208 14.6251 11.7656C14.6251 12.4664 14.3508 13.125 13.8563 13.6219Z" fill="white"/>
</svg>
